# xmcd CD database file
#
# Track frame offsets:
#	150
#	13805
#	28224
#	50054
#	64440
#	86859
#	101058
#	118997
#	133005
#
# Disc length: 2085 seconds
#
# Revision: 0
# Processed by: cddbd v1.4PL0 Copyright (c) Steve Scherf et al.
# Submitted via: CDex 1.51
#
DISCID=8c082309
DTITLE=Off Mission Blues Band - Nothing but the blues
DYEAR=2003
DGENRE=Blues
TTITLE0=Messin with the kid
TTITLE1=blind man blues
TTITLE2=5 long years
TTITLE3=crossroad
TTITLE4=born on a bad sign
TTITLE5=got my mojo workin
TTITLE6=stormy Monday
TTITLE7=Who's been Talkin
TTITLE8=Mustang Sally
EXTD=YEAR: 2003
EXTT0=
EXTT1=
EXTT2=
EXTT3=
EXTT4=
EXTT5=
EXTT6=
EXTT7=
EXTT8=
PLAYORDER=
